HIERARCHY
ROOT SpineBase
{
  OFFSET 0.000000 0.000000 0.000000
  CHANNELS 6 Xposition Yposition Zposition Zrotation Xrotation Yrotation
  JOINT SpineMid
  {
    OFFSET 0.000000 27.446980 0.000000
    CHANNELS 3 Zrotation Xrotation Yrotation
    JOINT SpineShoulder
    {
      OFFSET 0.163745 20.685364 -0.776425
      CHANNELS 3 Zrotation Xrotation Yrotation
      JOINT Neck
      {
        OFFSET 0.116776 6.955166 -0.566914
        CHANNELS 3 Zrotation Xrotation Yrotation
        JOINT Head
        {
          OFFSET 2.862938 14.075854 -0.366972
          CHANNELS 3 Zrotation Xrotation Yrotation
          End Site
          {
            OFFSET 0 0 0
          }
        }
      }
      JOINT ShoulderLeft
      {
        OFFSET -9.423643 -0.523829 -9.438529
        CHANNELS 3 Zrotation Xrotation Yrotation
        JOINT ElbowLeft
        {
          OFFSET -3.029649 -19.147325 -6.718332
          CHANNELS 3 Zrotation Xrotation Yrotation
          JOINT WristLeft
          {
            OFFSET 12.370452 -13.712967 -11.216820
            CHANNELS 3 Zrotation Xrotation Yrotation
            JOINT HandLeft
            {
              OFFSET 2.897135 -2.358754 -3.063783
              CHANNELS 3 Zrotation Xrotation Yrotation
              JOINT HandTipLeft
              {
                OFFSET 2.258028 -1.602390 -4.458611
                CHANNELS 3 Zrotation Xrotation Yrotation
                End Site
                {
                  OFFSET 0 0 0
                }
              }
              JOINT ThumbLeft
              {
                OFFSET 4.437412 1.596625 -3.884117
                CHANNELS 3 Zrotation Xrotation Yrotation
                End Site
                {
                  OFFSET 0 0 0
                }
              }
            }
          }
        }
      }
      JOINT ShoulderRight
      {
        OFFSET 15.302195 -1.608921 8.485117
        CHANNELS 3 Zrotation Xrotation Yrotation
        JOINT ElbowRight
        {
          OFFSET 8.111986 -23.322933 5.411240
          CHANNELS 3 Zrotation Xrotation Yrotation
          JOINT WristRight
          {
            OFFSET 17.578263 -18.351233 -1.468615
            CHANNELS 3 Zrotation Xrotation Yrotation
            JOINT HandRight
            {
              OFFSET 7.255965 -4.186337 0.412171
              CHANNELS 3 Zrotation Xrotation Yrotation
              JOINT HandTipRight
              {
                OFFSET 5.267967 -2.724978 -3.547763
                CHANNELS 3 Zrotation Xrotation Yrotation
                End Site
                {
                  OFFSET 0 0 0
                }
              }
              JOINT ThumbRight
              {
                OFFSET 0.979367 2.618258 3.003405
                CHANNELS 3 Zrotation Xrotation Yrotation
                End Site
                {
                  OFFSET 0 0 0
                }
              }
            }
          }
        }
      }
    }
  }
  JOINT HipLeft
  {
    OFFSET -5.298095 1.669946 -5.815780
    CHANNELS 3 Zrotation Xrotation Yrotation
    JOINT KneeLeft
    {
      OFFSET 14.648222 6.068577 -27.363631
      CHANNELS 3 Zrotation Xrotation Yrotation
      JOINT AnkleLeft
      {
        OFFSET 9.976741 -33.110923 -1.292901
        CHANNELS 3 Zrotation Xrotation Yrotation
        JOINT FootLeft
        {
          OFFSET 3.164247 -5.264689 -5.727439
          CHANNELS 3 Zrotation Xrotation Yrotation
          End Site
          {
            OFFSET 0 0 0
          }
        }
      }
    }
  }
  JOINT HipRight
  {
    OFFSET 5.965736 1.334103 0.036467
    CHANNELS 3 Zrotation Xrotation Yrotation
    JOINT KneeRight
    {
      OFFSET 30.196329 3.262760 -8.409763
      CHANNELS 3 Zrotation Xrotation Yrotation
      JOINT AnkleRight
      {
        OFFSET -2.703299 -29.102723 -12.670937
        CHANNELS 3 Zrotation Xrotation Yrotation
        JOINT FootRight
        {
          OFFSET 6.304154 -1.859273 -10.983716
          CHANNELS 3 Zrotation Xrotation Yrotation
          End Site
          {
            OFFSET 0 0 0
          }
        }
      }
    }
  }
}
MOTION
Frames: 14
Frame Time: 0.033333
-38.748683 30.732432 346.277210 -0.000000 0.000000 -27.454629 0.000000 0.000000 27.454629 -0.000000 0.000000 0.000000 -0.000000 0.000000 0.000000 0.000000 0.000000 0.000000 -0.000000 0.000000 0.000000 -0.000000 0.000000 0.000000 -0.000000 0.000000 0.000000 -0.000000 0.000000 0.000000 0.000000 0.000000 0.000000 0.000000 0.000000 0.000000 -0.000000 0.000000 0.000000 -0.000000 0.000000 0.000000 -0.000000 0.000000 0.000000 -0.000000 0.000000 0.000000 0.000000 0.000000 0.000000 0.000000 0.000000 0.000000 0.000000 0.000000 27.454629 -0.000000 0.000000 0.000000 -0.000000 0.000000 0.000000 0.000000 0.000000 0.000000 0.000000 0.000000 27.454629 -0.000000 0.000000 0.000000 -0.000000 0.000000 0.000000 0.000000 0.000000 0.000000
-38.396837 30.808634 345.857396 0.656978 0.617576 -27.225651 -0.301700 -0.849699 27.219873 0.722362 0.698340 0.042779 -0.330927 -1.547928 0.139286 0.000000 0.000000 0.000000 0.971761 0.089868 -0.761823 -2.435866 -0.812889 1.320911 0.751540 -0.014543 -0.624137 1.921562 5.339157 1.813996 0.000000 0.000000 0.000000 0.000000 0.000000 0.000000 -0.722937 -0.697745 -0.051583 -2.521157 -0.154486 0.051509 3.747546 -1.126469 -2.100534 -1.433060 -1.234562 -2.509452 0.000000 0.000000 0.000000 0.000000 0.000000 0.000000 -0.301700 -0.849699 27.219873 -0.511718 -1.262982 -0.366877 5.832625 -3.936954 -8.618522 0.000000 0.000000 0.000000 -0.301700 -0.849699 27.219873 -0.000000 0.000000 0.000000 -0.000000 0.000000 0.000000 0.000000 0.000000 0.000000
-38.092581 30.881752 345.509564 1.255905 1.177886 -27.095117 -0.182720 -0.368265 27.108262 0.465716 0.420177 0.062089 -0.618156 -2.827617 0.241693 0.000000 0.000000 0.000000 1.737331 0.137152 -1.407867 -4.281219 -1.453994 2.362289 2.118888 0.256758 -1.764014 2.202328 8.885148 3.731429 0.000000 0.000000 0.000000 0.000000 0.000000 0.000000 -1.004997 -0.091169 0.426546 -4.792209 -1.315543 -0.369184 6.637497 -2.070107 -3.597934 -2.453758 -2.212836 -4.717280 0.000000 0.000000 0.000000 0.000000 0.000000 0.000000 -0.660156 -2.630228 26.782301 -0.414558 -1.427758 -0.374683 10.529628 -6.719613 -15.362544 0.000000 0.000000 0.000000 -0.581901 -1.620485 27.073977 -0.175442 -0.968882 0.165487 0.178265 0.968366 -0.168477 0.000000 0.000000 0.000000
-37.835914 30.951786 345.233714 1.796440 1.680508 -27.063818 -0.247624 -0.437959 27.075294 0.630147 0.562380 0.088030 -0.861004 -3.845692 0.306632 0.000000 0.000000 0.000000 2.321830 0.160668 -1.952676 -5.521899 -1.897899 3.125861 2.588862 0.249576 -2.219752 2.387067 10.625952 4.508083 0.000000 0.000000 0.000000 0.000000 0.000000 0.000000 -1.372346 -0.096389 0.644040 -6.189750 -1.596043 -0.334829 8.599885 -2.802806 -4.443642 -3.004419 -2.859774 -6.540350 0.000000 0.000000 0.000000 0.000000 0.000000 0.000000 -0.929400 -3.529470 26.681361 -0.662313 -2.031672 -0.560144 14.247601 -7.607225 -19.788000 0.000000 0.000000 0.000000 -0.836062 -2.313387 27.020588 -0.287264 -1.326681 0.246167 0.751293 2.221327 0.075374 0.000000 0.000000 0.000000
-37.626836 31.018736 345.029847 2.278302 2.125164 -27.132345 -0.293626 -0.430968 27.138952 0.749073 0.659265 0.111129 -1.058454 -4.607098 0.333306 0.000000 0.000000 0.000000 2.745737 0.175539 -2.408666 -6.154995 -2.134826 3.614927 2.565448 0.146949 -2.314774 2.021831 10.106370 4.463461 0.000000 0.000000 0.000000 0.000000 0.000000 0.000000 -1.649854 -0.074641 0.866762 -6.803502 -1.607879 -0.090573 9.551223 -3.294636 -4.597091 -3.043773 -3.168646 -7.976936 0.000000 0.000000 0.000000 0.000000 0.000000 0.000000 -1.149521 -4.161299 26.740605 -0.928059 -2.544886 -0.737097 17.249960 -6.383465 -21.970735 0.000000 0.000000 0.000000 -1.060312 -2.929389 27.062970 -0.414946 -1.595482 0.324956 1.037104 2.725964 -0.103322 0.000000 0.000000 0.000000
-37.465347 31.082601 344.897961 2.701255 2.511672 -27.301163 -0.320804 -0.346912 27.301159 0.822577 0.710807 0.131643 -1.209171 -5.114984 0.320653 0.000000 0.000000 0.000000 3.025076 0.194078 -2.786102 -6.194966 -2.173026 3.836751 2.013583 -0.058484 -2.033698 1.130054 7.350056 3.571593 0.000000 0.000000 0.000000 0.000000 0.000000 0.000000 -1.837719 -0.025896 1.096192 -6.539030 -1.327735 0.402202 9.380160 -3.509056 -4.025405 -2.542596 -3.189410 -9.080152 0.000000 0.000000 0.000000 0.000000 0.000000 0.000000 -1.317813 -4.528734 26.962934 -1.208564 -2.962733 -0.903398 19.616569 -3.077423 -22.134146 0.000000 0.000000 0.000000 -1.251486 -3.469336 27.204032 -0.558105 -1.773063 0.401589 1.340435 3.107979 -0.381164 0.000000 0.000000 0.000000
-37.377429 31.131506 344.851201 3.054886 2.810780 -27.595324 -0.317497 -0.026474 27.590216 0.872726 0.734354 0.153766 -1.288738 -5.379937 0.246544 0.000000 0.000000 0.000000 3.124707 0.334423 -3.155638 -6.410355 -2.722753 4.028031 0.355341 -0.125845 -0.188017 1.744346 4.249560 0.515432 0.000000 0.000000 0.000000 0.000000 0.000000 0.000000 -2.193558 -0.221319 1.231951 -6.764025 -1.117431 0.786370 8.970642 -3.307597 -3.221699 -2.668410 -1.844439 -5.535880 0.000000 0.000000 0.000000 0.000000 0.000000 0.000000 -1.409849 -3.903937 27.472307 -1.336408 -4.429632 -1.341551 18.848833 8.624027 -15.506227 0.000000 0.000000 0.000000 -1.409849 -3.903937 27.472307 -0.679267 -1.916962 0.465595 1.633594 3.446388 -0.734351 0.000000 0.000000 0.000000
-37.323718 31.141271 344.918729 3.322157 2.965888 -27.922500 -0.288253 0.345377 27.916424 0.842465 0.641429 0.172575 -1.242556 -5.121400 0.113767 0.000000 0.000000 0.000000 1.997326 0.647989 -3.086831 -5.713557 -2.880028 4.305363 -1.631184 -2.883588 -1.031829 -0.432554 -1.703828 0.624834 0.000000 0.000000 0.000000 0.000000 0.000000 0.000000 -2.099222 -0.084512 1.499716 -4.288659 -0.945713 0.981270 5.279108 -0.773372 1.385781 -1.248989 -4.754466 -11.628110 0.000000 0.000000 0.000000 0.000000 0.000000 0.000000 -1.552154 -4.173540 27.779912 -1.370894 -3.748465 -1.126658 19.488269 14.773507 -12.698353 0.000000 0.000000 0.000000 -1.552154 -4.173540 27.779912 -0.847234 -1.883634 0.533383 1.952490 3.534045 -1.198500 0.000000 0.000000 0.000000
-37.402472 31.169486 344.877925 3.385220 3.316212 -28.028459 -0.167863 0.719970 28.018165 0.757412 0.507384 0.182897 -1.147025 -5.104812 0.020401 0.000000 0.000000 0.000000 2.211951 0.512118 -3.299335 -3.815495 -2.240270 3.519735 -4.714676 -3.706658 1.069885 -2.840267 -8.197481 -2.039421 0.000000 0.000000 0.000000 0.000000 0.000000 0.000000 -1.801270 -0.071509 1.794297 1.395249 0.293231 2.044284 -0.770705 0.183707 4.305665 1.902223 -4.509033 -13.566025 0.000000 0.000000 0.000000 0.000000 0.000000 0.000000 -1.377857 -3.266326 28.160057 -2.459503 -3.754187 -1.109748 23.906314 19.246324 -14.049554 0.000000 0.000000 0.000000 -1.436318 -4.515024 27.873812 -1.105687 -1.725662 0.628621 2.378300 3.482917 -1.798760 0.000000 0.000000 0.000000
-37.422002 31.291017 344.965863 3.617351 3.597533 -28.722330 -0.213353 0.870545 28.699306 0.693131 0.491824 0.186202 -1.316081 -4.932591 -0.123648 0.000000 0.000000 0.000000 3.219981 0.232405 -3.697347 -0.904579 -1.025314 1.940489 -4.833087 -2.949203 0.785531 -8.059265 -15.284112 -4.080014 0.000000 0.000000 0.000000 0.000000 0.000000 0.000000 -1.389950 0.360940 2.224374 6.268484 3.910001 5.102225 -2.777163 -1.828929 4.345547 1.822237 -2.769228 -13.671914 0.000000 0.000000 0.000000 0.000000 0.000000 0.000000 -1.421558 -3.186095 28.776873 -2.631454 -3.702914 -0.926583 17.312347 23.770930 -5.420306 0.000000 0.000000 0.000000 -1.451326 -4.889687 28.546721 -1.352176 -1.480180 0.711992 2.804042 3.307388 -2.557309 0.000000 0.000000 0.000000
-37.374612 31.479704 345.223018 3.980947 3.760107 -29.800794 -0.291424 0.953866 29.766142 0.568101 0.508040 0.183717 -2.092319 -4.964669 -0.264369 0.000000 0.000000 0.000000 3.991843 -0.491590 -3.907044 3.850280 0.815018 -0.995691 -4.215759 -0.239654 0.973324 -13.251100 -20.977674 -6.492112 0.000000 0.000000 0.000000 0.000000 0.000000 0.000000 -0.837215 1.289132 2.803557 12.380056 9.323168 8.992443 -7.515805 -3.644042 4.775867 0.838539 -2.337005 -14.589073 0.000000 0.000000 0.000000 0.000000 0.000000 0.000000 -1.559364 -3.764795 30.000418 -2.784672 -2.511239 -0.781320 17.747591 25.985751 -4.312862 0.000000 0.000000 0.000000 -1.595714 -5.236828 29.597088 -1.572908 -1.206077 0.782922 3.201186 3.082403 -3.346928 0.000000 0.000000 0.000000
-37.247329 31.698691 345.644126 4.428010 3.813718 -31.102946 -0.380996 0.939714 31.059141 0.378351 0.503406 0.176261 -2.945532 -4.836947 -0.408686 0.000000 0.000000 0.000000 8.163004 -0.454492 -5.301293 6.779665 2.876752 -3.117143 -3.334793 0.288496 -1.595647 -19.321045 -28.272185 -8.087507 0.000000 0.000000 0.000000 0.000000 0.000000 0.000000 -0.788078 1.410665 2.908762 17.484905 16.848346 13.226873 -7.690212 -0.066623 13.384870 -2.052985 -5.827979 -23.679937 0.000000 0.000000 0.000000 0.000000 0.000000 0.000000 -1.711819 -4.953160 31.662686 -2.149452 -1.268211 -1.002334 14.386488 26.807892 -0.695891 0.000000 0.000000 0.000000 -1.888373 -5.806795 32.178059 -1.573838 -0.713205 -0.479375 3.519006 2.842085 -4.085693 0.000000 0.000000 0.000000
-36.970736 31.941037 346.163255 5.019652 3.820117 -32.678590 -0.478131 0.905556 32.626288 0.304331 0.580477 0.182950 -4.067400 -5.050500 -0.517451 0.000000 0.000000 0.000000 12.402307 -0.679193 -6.776325 7.869714 4.716338 -4.442573 0.831951 1.268488 -6.151294 -25.621158 -36.417641 -9.242197 0.000000 0.000000 0.000000 0.000000 0.000000 0.000000 0.206738 4.058446 4.074138 18.419698 22.813730 17.906476 -7.723180 -0.559074 16.431361 -5.500717 -9.208233 -31.799587 0.000000 0.000000 0.000000 0.000000 0.000000 0.000000 -1.837667 -6.775326 33.786342 -1.606941 0.489004 -1.397062 13.154796 22.684932 -0.895241 0.000000 0.000000 0.000000 -2.270065 -6.440525 35.003282 -1.483142 -0.306739 -1.748006 3.752126 2.727952 -4.628607 0.000000 0.000000 0.000000
-36.675540 32.164674 346.739776 5.597350 3.807730 -34.196291 -0.519260 0.829364 34.140810 0.186969 0.572257 0.190571 -5.028066 -5.268299 -0.571678 0.000000 0.000000 0.000000 16.318539 -1.191330 -8.050279 9.828477 7.121514 -6.421373 2.445309 0.013969 -9.310848 -26.303165 -37.107196 -9.507554 0.000000 0.000000 0.000000 0.000000 0.000000 0.000000 1.012519 7.868184 5.426509 17.130546 27.939844 23.272362 -8.713257 -3.304092 16.434894 -8.411173 -10.081631 -35.481009 0.000000 0.000000 0.000000 0.000000 0.000000 0.000000 -1.799297 -9.018531 35.907197 -1.004504 2.661702 -1.800399 12.415440 18.242572 -1.639054 0.000000 0.000000 0.000000 -2.587553 -7.075622 38.008775 -1.306680 0.020127 -3.286162 3.857143 2.712664 -5.018068 0.000000 0.000000 0.000000
